<svg width="1400" height="262" viewBox="0 0 1400 262" fill="none" xmlns="http://www.w3.org/2000/svg">
<path d="M1205.48 256.695V249.4L1210 247.664C1217.64 244.885 1219.03 238.632 1219.03 225.433V121.921C1219.03 106.985 1215.9 105.248 1206.52 105.248H1201.31V96.2171L1238.48 88.228L1241.61 91.3541V113.932H1245.77C1261.06 95.8698 1271.48 86.8385 1284.68 86.8385C1297.18 86.8385 1308.65 95.5224 1312.12 113.932H1316.29C1331.57 95.8698 1341.99 86.8385 1356.23 86.8385C1374.3 86.8385 1387.5 103.512 1387.5 134.079V226.475C1387.5 239.674 1388.54 244.19 1396.18 247.664L1400 249.4V256.695H1344.77V249.4L1349.98 247.664C1359.01 244.537 1360.05 237.59 1360.05 225.433V133.384C1360.05 111.153 1353.8 104.206 1344.77 104.206C1337.13 104.206 1330.88 109.069 1324.62 117.058C1319.76 124.005 1316.98 127.826 1316.98 135.121V256.695H1289.54V133.384C1289.54 111.501 1283.29 104.206 1273.91 104.206C1266.27 104.206 1260.02 109.417 1254.11 117.058C1249.25 124.005 1246.47 127.479 1246.47 134.773V226.475C1246.47 238.98 1247.51 244.537 1256.54 247.664L1261.75 249.4V256.695H1205.48Z" fill="black"/>
<path d="M1063.73 261.21C1040.11 261.21 1027.26 244.537 1027.26 225.085C1027.26 195.213 1058.18 177.845 1097.43 158.394L1119.66 147.278V139.636C1119.66 111.153 1106.11 98.3012 1089.79 98.3012C1065.82 98.3012 1050.53 125.047 1038.72 152.836L1029 149.71L1044.63 101.427C1063.73 92.3962 1082.49 86.1438 1100.9 86.1438C1130.77 86.1438 1153.35 103.859 1153.35 147.626V230.643C1153.35 234.117 1154.05 237.59 1157.17 237.59C1162.73 237.59 1166.2 230.296 1179.06 206.676H1190.87C1171.07 243.148 1162.04 259.821 1142.58 259.821C1126.26 259.821 1120.7 249.053 1121.39 234.464V220.57H1118.62C1102.64 242.453 1088.05 261.21 1063.73 261.21ZM1076.24 242.106C1086.31 242.106 1096.04 235.853 1104.37 226.128C1113.06 215.707 1119.66 202.855 1119.66 186.877V158.394L1099.16 168.814C1071.03 183.056 1059.22 197.992 1059.22 216.402V220.917C1059.22 235.159 1065.82 242.106 1076.24 242.106Z" fill="black"/>
<path d="M876.483 256.695L873.009 253.569V228.906L876.483 225.78H921.639L925.46 228.906V253.569L921.639 256.695H876.483ZM876.483 146.931L873.009 143.805V119.142L876.483 116.016H921.639L925.46 119.142V143.805L921.639 146.931H876.483Z" fill="black"/>
<path d="M700.695 261.21C662.486 261.21 623.582 213.275 623.582 173.33C623.582 132.689 663.528 86.1438 702.431 86.1438C737.167 86.1438 768.776 121.227 774.681 154.92V161.867H664.917V165.341V183.056C664.917 225.085 677.769 250.095 701.737 250.095C727.094 250.095 739.598 227.17 759.05 196.95H771.902C750.366 231.338 732.999 261.21 700.695 261.21ZM665.265 152.141H735.43C734.735 113.932 723.62 95.5224 702.431 95.5224C679.159 95.5224 667.349 114.974 665.265 152.141Z" fill="black"/>
<path d="M510.318 256.695V249.4L518.307 247.664C530.464 244.885 531.506 238.285 531.506 225.433V147.278C531.506 117.406 521.433 104.206 505.107 104.206C493.992 104.206 485.655 111.153 480.445 116.711C474.193 122.963 467.246 134.079 467.246 144.499V226.822C467.246 239.674 468.288 245.232 480.098 247.664L488.434 249.4V256.695H409.585V249.053L418.269 247.316C432.163 244.537 433.552 237.243 433.552 225.085V125.047C433.552 109.069 430.079 107.332 416.879 106.985L402.985 106.638V97.9539L462.383 88.228L465.161 91.0068V114.627H470.024C487.392 96.2171 499.202 86.1438 517.265 86.1438C546.095 86.1438 565.199 111.153 565.199 150.752V226.128C565.199 238.632 567.284 244.885 580.483 247.316L589.514 249.053V256.695H510.318Z" fill="black"/>
<path d="M225.46 256.695V248.706L246.301 246.969C279.3 244.19 283.468 236.896 283.468 223.696V127.132C283.468 111.153 282.079 106.29 263.669 105.943L223.376 105.596V95.8697L313.688 88.2279L317.161 91.3541V224.738C317.161 238.632 322.024 244.537 353.634 246.969L375.17 248.706V256.695H225.46ZM282.773 40.2931L279.3 37.5142V3.12619L282.773 0H313.341L316.814 3.12619V37.5142L313.341 40.2931H282.773Z" fill="black"/>
<path d="M107.332 256.695V249.4L115.322 247.664C127.479 244.885 128.521 238.285 128.521 225.433V147.278C128.521 117.406 118.448 104.206 102.122 104.206C91.0068 104.206 82.6703 111.153 77.46 116.711C71.2076 122.963 64.2605 134.079 64.2605 144.499V226.822C64.2605 239.674 65.3026 245.232 77.1126 247.664L85.4491 249.4V256.695H6.59973V249.053L15.2836 247.316C29.1777 244.537 30.5672 237.243 30.5672 225.085V125.047C30.5672 109.069 27.0936 107.332 13.8942 106.985L0 106.638V97.9539L59.3976 88.228L62.1764 91.0068V114.627H67.0394C84.4071 96.2171 96.2171 86.1438 114.28 86.1438C143.11 86.1438 162.214 111.153 162.214 150.752V226.128C162.214 238.632 164.299 244.885 177.498 247.316L186.529 249.053V256.695H107.332Z" fill="black"/>
</svg>
